<?xml version="1.0" encoding="utf-8"?>
<!-- Generator: Adobe Illustrator 27.2.0, SVG Export Plug-In . SVG Version: 6.00 Build 0)  -->
<svg version="1.1" id="Layer_1" xmlns="http://www.w3.org/2000/svg" xmlns:xlink="http://www.w3.org/1999/xlink" x="0px" y="0px"
	 viewBox="0 0 337.03 338.52" style="enable-background:new 0 0 337.03 338.52;" xml:space="preserve">
<g>
	<g>
		<path d="M57.57,188.8c0-0.95,0.14-2.04,0.42-3.28c0.28-1.23,0.68-2.82,1.2-4.77c0.61-2.03,1.06-3.76,1.36-5.19
			c0.3-1.43,0.45-2.7,0.45-3.83c0-2.94-1.3-4.41-3.89-4.41c-0.69,0-1.41,0.09-2.14,0.26l-5.19,24.46h-9.34l8.83-41.27l9.6-1.3
			l-3.18,14.99h0.52c1.69,0,3.24-0.58,4.67-1.75c1.43-1.17,2.54-2.63,3.34-4.38c0.8-1.75,1.2-3.47,1.2-5.16
			c0-1.99-0.6-3.62-1.78-4.9c-1.19-1.28-2.98-1.91-5.35-1.91c-3.5,0-6.58,0.63-9.21,1.88c-2.64,1.25-4.68,3.07-6.13,5.45
			c-1.45,2.38-2.17,5.19-2.17,8.44c0,1.6,0.15,2.71,0.45,3.34c0.3,0.63,0.45,0.98,0.45,1.07c-2.34,0-4.08-0.49-5.22-1.46
			c-1.15-0.97-1.72-2.59-1.72-4.83c0-2.77,1.14-5.46,3.41-8.08c2.27-2.62,5.18-4.74,8.73-6.36c3.55-1.62,7.09-2.43,10.64-2.43
			c3.24,0,5.97,0.48,8.18,1.43c2.21,0.95,3.85,2.22,4.93,3.8c1.08,1.58,1.62,3.3,1.62,5.16c0,2.03-0.63,4.07-1.88,6.1
			c-1.26,2.03-2.96,3.7-5.13,5c1.64,0.48,2.8,1.26,3.47,2.37c0.67,1.1,1.01,2.48,1.01,4.12c0,1.25-0.15,2.59-0.45,3.99
			c-0.3,1.41-0.74,3.15-1.3,5.22c-0.35,1.34-0.67,2.66-0.97,3.96c-0.3,1.3-0.45,2.38-0.45,3.25c0,1,0.23,1.88,0.68,2.66
			c0.45,0.78,1.07,1.32,1.85,1.62c-2.64,0.73-4.78,1.1-6.42,1.1C59.26,193.15,57.57,191.7,57.57,188.8z"/>
		<path d="M75.09,189.93c-1.77-1.67-2.66-4.27-2.66-7.82c0-2.98,0.58-6.27,1.75-9.86c1.17-3.59,3.07-6.69,5.71-9.31
			c2.64-2.62,5.99-3.93,10.06-3.93c4.76,0,7.14,2.08,7.14,6.23c0,2.42-0.69,4.65-2.08,6.68c-1.39,2.03-3.22,3.67-5.52,4.9
			c-2.29,1.23-4.74,1.94-7.33,2.11c-0.09,0.95-0.13,1.6-0.13,1.95c0,3.59,1.34,5.39,4.02,5.39c1.21,0,2.51-0.33,3.89-0.97
			c1.38-0.65,2.64-1.47,3.76-2.46c-1.17,6.4-4.91,9.6-11.23,9.6C79.33,192.43,76.86,191.6,75.09,189.93z M87.26,174.2
			c1.45-1.04,2.62-2.37,3.5-3.99c0.89-1.62,1.33-3.32,1.33-5.09c0-1.77-0.54-2.66-1.62-2.66c-1.52,0-3.02,1.37-4.51,4.12
			c-1.49,2.75-2.61,5.83-3.34,9.25C84.26,175.78,85.81,175.24,87.26,174.2z"/>
		<path d="M99.49,172.51h12.98l-1.1,5.13H98.32L99.49,172.51z"/>
		<path d="M136.51,192.07c-1.28-0.71-1.91-1.96-1.91-3.73c0-1.12,0.28-2.38,0.84-3.76c0.78,0.87,1.5,1.47,2.17,1.82
			c0.67,0.35,1.4,0.52,2.17,0.52c2.16,0,3.77-1.21,4.83-3.63c1.06-2.42,1.59-5.1,1.59-8.05c0-5.49-2.06-8.24-6.17-8.24
			c-1.17,0-2.16,0.06-2.98,0.19l-5.32,24.85h-9.34l8.83-41.27l9.6-1.3l-3.05,14.41h0.39c1.64,0,3.18-0.53,4.61-1.59
			c1.43-1.06,2.57-2.4,3.44-4.02c0.86-1.62,1.3-3.25,1.3-4.9c0-1.99-0.7-3.66-2.11-5c-1.41-1.34-3.56-2.01-6.46-2.01
			c-2.64,0-5.21,0.6-7.72,1.79c-2.51,1.19-4.55,2.97-6.13,5.35c-1.58,2.38-2.37,5.26-2.37,8.63c0,1.6,0.15,2.71,0.45,3.34
			c0.3,0.63,0.45,0.98,0.45,1.07c-2.29,0-4.02-0.46-5.19-1.39c-1.17-0.93-1.75-2.46-1.75-4.58c0-2.94,1.1-5.73,3.31-8.37
			c2.21-2.64,5.13-4.77,8.76-6.39c3.63-1.62,7.46-2.43,11.49-2.43c3.03,0,5.58,0.48,7.66,1.43s3.62,2.21,4.64,3.76
			c1.02,1.56,1.52,3.27,1.52,5.13c0,1.99-0.56,3.92-1.69,5.78c-1.13,1.86-2.73,3.37-4.8,4.54c2.6,0.48,4.52,1.68,5.78,3.6
			c1.25,1.92,1.88,4.21,1.88,6.85c0,2.46-0.47,5.15-1.4,8.05c-0.93,2.9-2.47,5.4-4.61,7.49c-2.14,2.1-4.88,3.15-8.21,3.15
			C139.29,193.15,137.79,192.79,136.51,192.07z"/>
		<path d="M159.32,189.93c-1.77-1.67-2.66-4.27-2.66-7.82c0-2.98,0.58-6.27,1.75-9.86c1.17-3.59,3.07-6.69,5.71-9.31
			c2.64-2.62,5.99-3.93,10.06-3.93c4.76,0,7.14,2.08,7.14,6.23c0,2.42-0.69,4.65-2.08,6.68c-1.39,2.03-3.22,3.67-5.52,4.9
			c-2.29,1.23-4.74,1.94-7.33,2.11c-0.09,1.3-0.13,2.16-0.13,2.6c0,2.12,0.37,3.56,1.1,4.32c0.73,0.76,1.92,1.13,3.57,1.13
			c2.34,0,4.34-0.54,6-1.62c1.67-1.08,3.49-2.73,5.48-4.93h2.21c-4.8,8-10.75,12-17.85,12C163.58,192.43,161.1,191.6,159.32,189.93z
			 M171.49,174.13c1.45-1.04,2.62-2.36,3.5-3.96c0.89-1.6,1.33-3.29,1.33-5.06c0-1.77-0.54-2.66-1.62-2.66
			c-1.56,0-3.08,1.36-4.58,4.09c-1.49,2.73-2.56,5.82-3.21,9.28C168.51,175.73,170.04,175.17,171.49,174.13z"/>
		<path d="M184.05,189.9c-1.64-1.69-2.47-4.32-2.47-7.92c0-3.2,0.64-6.56,1.91-10.09c1.28-3.53,3.18-6.51,5.71-8.96
			c2.53-2.44,5.55-3.67,9.05-3.67c1.77,0,3.09,0.3,3.96,0.91c0.86,0.61,1.3,1.41,1.3,2.4v0.45l0.71-3.44h9.34l-4.67,22.06
			c-0.17,0.65-0.26,1.34-0.26,2.08c0,1.86,0.89,2.79,2.66,2.79c1.21,0,2.26-0.56,3.15-1.69c0.89-1.12,1.59-2.6,2.11-4.41h2.73
			c-1.6,4.67-3.58,7.84-5.94,9.51c-2.36,1.67-4.73,2.5-7.11,2.5c-1.82,0-3.28-0.51-4.38-1.53c-1.1-1.02-1.76-2.5-1.98-4.44
			c-1.25,1.77-2.65,3.21-4.19,4.32c-1.54,1.1-3.36,1.65-5.48,1.65C187.74,192.43,185.69,191.59,184.05,189.9z M197.64,184.61
			c1.06-1.02,1.78-2.41,2.17-4.19l3.12-14.67c0-0.56-0.22-1.11-0.65-1.66c-0.43-0.54-1.1-0.81-2.01-0.81
			c-1.73,0-3.29,1.01-4.67,3.02c-1.39,2.01-2.47,4.44-3.24,7.27c-0.78,2.83-1.17,5.33-1.17,7.5c0,2.16,0.31,3.55,0.94,4.15
			c0.63,0.61,1.4,0.91,2.3,0.91C195.51,186.14,196.58,185.63,197.64,184.61z"/>
		<path d="M217.76,190.42c-1.06-1.34-1.59-3.12-1.59-5.32c0-1.12,0.13-2.27,0.39-3.44l4.15-19.47h-2.14l0.52-2.6h2.14l1.95-8.96
			l9.6-1.3c-0.39,1.64-0.61,2.62-0.65,2.92c-0.3,1.21-0.82,3.66-1.56,7.33h3.89l-0.52,2.6h-3.89l-4.15,19.47
			c-0.22,0.95-0.32,1.71-0.32,2.27c0,1.56,0.76,2.34,2.27,2.34c0.78,0,1.34-0.07,1.69-0.2c-0.87,2.51-1.88,4.2-3.05,5.06
			c-1.17,0.87-2.44,1.3-3.83,1.3C220.45,192.43,218.82,191.76,217.76,190.42z"/>
	</g>
	<path d="M302.19,143.09c-1.41-15.63-5.43-27.04-6.64-30.17c-6.88-17.91-18.84-34.61-33.68-47.03
		c-17.26-14.44-37.76-22.65-59.29-23.75c-21.61-1.1-43.2,5.16-62.43,18.08c-10.83,7.28-18.54,15.05-22.71,19.72l-10.98-4.46
		c-6.01-2.44-12.4,2.54-11.51,8.96l6.05,43.57c0.89,6.42,8.4,9.47,13.51,5.49l34.71-27.02c5.11-3.98,4-12.01-2-14.45l-8.04-3.26
		c10.98-10.38,32.87-26.4,62.3-24.91c36.59,1.86,63.42,29.89,73.77,56.85c1.46,3.79,13.74,37.98-3.02,70.63
		c-10.51,20.47-27.07,29.45-53.75,42.38c-3.88,1.88-7.96,3.35-12.15,4.38l-0.03,0.01c-11.9,2.98-25.93,0.14-39.7-2.45
		c-15.76-2.96-28.4-5.33-39.28-15.16c-4.94-4.47-7.57-8.71-13.25-9.24c-6.07-0.57-14.07,3.26-16.5,10.58
		c-1.42,4.26-0.78,9.22,1.71,12.89c3.69,5.45,10.49,6.69,17.7,8.01c11.75,2.15,18.36-0.04,20.79,4.03c1.07,1.8,0.97,4.23,0.08,5.85
		c-1.28,2.33-4.13,2.87-10.79,3.84c-9.58,1.4-14.37,2.1-15.88,2c-9.66-0.64-10.48-4.65-16.77-3.79c-5.87,0.8-12.92,5.35-14.34,12.46
		c-1.44,7.21,3.73,12.95,4.63,13.91c1.04,1.11,4.8,4.82,10.54,5.37c5.56,0.53,9.97-2.21,12.97-4.07c4.52-2.81,4.02-4.18,7.19-5.3
		c4.58-1.61,6.18,1.05,12.88,0.4c4.73-0.46,8.73-2.26,10.6-3.1c5.24-2.35,6.61-4.34,9.17-3.73c2.77,0.66,4.51,3.78,5.06,6.07
		c1.18,4.93-2.38,9.29-3.56,10.74c-3.67,4.5-6.25,3.35-10.76,7.82c-1.85,1.84-5.76,5.71-6.12,11.4c-0.49,7.76,5.98,13.03,6.81,13.68
		c4.44,3.5,9.23,3.78,10.67,3.81c1.49,0.03,7.01,0.15,11.29-3.71c4.09-3.69,4.71-8.92,5.2-12.97c0.61-5.12-0.6-5.93,0.13-9.77
		c0.78-4.12,2.77-6.35,7.68-12.33c12-14.62,11.01-14.59,14.19-17.01c1.3-0.99,16-5.88,24.28-8.59c3.32-1.09,7.66-2.9,9.48-3.8l0,0
		c31.71-15.27,54.64-26.38,69.17-54.69C300.53,183.86,304.1,164.28,302.19,143.09z"/>
</g>
</svg>
